<svg width="620" height="560" viewBox="0 0 620 560" fill="none" xmlns="http://www.w3.org/2000/svg">
  <rect width="620" height="560" rx="32" fill="#F8FAFC"/>
  <rect x="36" y="42" width="548" height="476" rx="28" fill="white"/>
  <rect x="68" y="78" width="484" height="96" rx="24" fill="#EFF6FF"/>
  <circle cx="130" cy="126" r="34" fill="#2563EB"/>
  <path d="M130 109C122.82 109 117 114.82 117 122C117 129.18 122.82 135 130 135C137.18 135 143 129.18 143 122C143 114.82 137.18 109 130 109ZM130 141.5C121.32 141.5 104 145.86 104 154.54V160H156V154.54C156 145.86 138.68 141.5 130 141.5Z" fill="white"/>
  <rect x="180" y="100" width="170" height="16" rx="8" fill="#0F172A"/>
  <rect x="180" y="126" width="90" height="12" rx="6" fill="#64748B"/>
  <rect x="180" y="147" width="68" height="22" rx="11" fill="#DCFCE7"/>
  <rect x="256" y="147" width="76" height="22" rx="11" fill="#DBEAFE"/>
  <rect x="440" y="106" width="80" height="40" rx="20" fill="#F59E0B"/>
  <rect x="68" y="208" width="224" height="120" rx="24" fill="#F8FAFC"/>
  <rect x="316" y="208" width="236" height="120" rx="24" fill="#F8FAFC"/>
  <rect x="68" y="348" width="484" height="138" rx="24" fill="#F8FAFC"/>
  <rect x="94" y="232" width="102" height="14" rx="7" fill="#0F172A"/>
  <rect x="94" y="256" width="74" height="10" rx="5" fill="#64748B"/>
  <rect x="94" y="283" width="136" height="24" rx="12" fill="#DBEAFE"/>
  <rect x="340" y="232" width="120" height="14" rx="7" fill="#0F172A"/>
  <rect x="340" y="256" width="84" height="10" rx="5" fill="#64748B"/>
  <rect x="340" y="283" width="120" height="24" rx="12" fill="#FEF3C7"/>
  <rect x="96" y="376" width="142" height="16" rx="8" fill="#0F172A"/>
  <rect x="96" y="404" width="212" height="12" rx="6" fill="#64748B"/>
  <rect x="96" y="430" width="98" height="30" rx="15" fill="#2563EB"/>
  <rect x="208" y="430" width="78" height="30" rx="15" fill="#DCFCE7"/>
  <rect x="300" y="430" width="96" height="30" rx="15" fill="#DBEAFE"/>
  <g opacity="0.75">
    <circle cx="482" cy="402" r="42" fill="#DBEAFE"/>
    <path d="M482 385C473.716 385 467 391.716 467 400C467 408.284 473.716 415 482 415C490.284 415 497 408.284 497 400C497 391.716 490.284 385 482 385ZM482 422.5C472.21 422.5 453 427.37 453 437.16V444H511V437.16C511 427.37 491.79 422.5 482 422.5Z" fill="#2563EB"/>
  </g>
</svg>
